<?xml version="1.0" encoding="utf-8" standalone="no"?>
<!DOCTYPE svg PUBLIC "-//W3C//DTD SVG 1.1//EN"
  "http://www.w3.org/Graphics/SVG/1.1/DTD/svg11.dtd">
<svg xmlns:xlink="http://www.w3.org/1999/xlink" width="166.183125pt" height="38.790625pt" viewBox="0 0 166.183125 38.790625" xmlns="http://www.w3.org/2000/svg" version="1.1">
 <metadata>
  <rdf:RDF xmlns:dc="http://purl.org/dc/elements/1.1/" xmlns:cc="http://creativecommons.org/ns#" xmlns:rdf="http://www.w3.org/1999/02/22-rdf-syntax-ns#">
   <cc:Work>
    <dc:type rdf:resource="http://purl.org/dc/dcmitype/StillImage"/>
    <dc:date>2023-03-09T11:18:05.739229</dc:date>
    <dc:format>image/svg+xml</dc:format>
    <dc:creator>
     <cc:Agent>
      <dc:title>Matplotlib v3.8.0.dev690+g75a35e0, https://matplotlib.org/</dc:title>
     </cc:Agent>
    </dc:creator>
   </cc:Work>
  </rdf:RDF>
 </metadata>
 <defs>
  <style type="text/css">*{stroke-linejoin: round; stroke-linecap: butt}</style>
 </defs>
 <g id="figure_1">
  <g id="patch_1">
   <path d="M 0 38.790625 
L 166.183125 38.790625 
L 166.183125 0 
L 0 0 
L 0 38.790625 
z
" style="fill: none"/>
  </g>
  <g id="line2d_1">
   <path d="M 74.16 26.196094 
L 74.981974 26.01331 
L 75.800638 25.830527 
L 76.612696 25.647743 
L 77.414878 25.464959 
L 78.203953 25.282176 
L 78.976745 25.099392 
L 79.730142 24.916609 
L 80.46111 24.733825 
L 81.166705 24.551042 
L 81.844087 24.368258 
L 82.490527 24.185474 
L 83.103424 24.002691 
L 83.680309 23.819907 
L 84.218858 23.637124 
L 84.716904 23.45434 
L 85.172442 23.271557 
L 85.583636 23.088773 
L 85.948831 22.905989 
L 86.266556 22.723206 
L 86.535533 22.540422 
L 86.754678 22.357639 
L 86.923108 22.174855 
L 87.040146 21.992072 
L 87.105321 21.809288 
L 87.118369 21.626504 
L 87.079238 21.443721 
L 86.988086 21.260937 
L 86.84528 21.078154 
L 86.651394 20.89537 
L 86.407211 20.712587 
L 86.113712 20.529803 
L 85.772079 20.347019 
L 85.383689 20.164236 
L 84.950105 19.981452 
L 84.473073 19.798669 
L 83.954514 19.615885 
L 83.396516 19.433102 
L 82.801326 19.250318 
L 82.17134 19.067534 
L 81.509096 18.884751 
L 80.817259 18.701967 
L 80.098616 18.519184 
L 79.35606 18.3364 
L 78.592581 18.153617 
L 77.811254 17.970833 
L 77.015225 17.788049 
L 76.207698 17.605266 
L 75.391926 17.422482 
L 74.571194 17.239699 
L 73.748806 17.056915 
L 72.928074 16.874132 
L 72.112302 16.691348 
L 71.304775 16.508564 
L 70.508746 16.325781 
L 69.727419 16.142997 
L 68.96394 15.960214 
L 68.221384 15.77743 
L 67.502741 15.594647 
L 66.810904 15.411863 
L 66.14866 15.229079 
L 65.518674 15.046296 
L 64.923484 14.863512 
L 64.365486 14.680729 
L 63.846927 14.497945 
L 63.369895 14.315162 
L 62.936311 14.132378 
L 62.547921 13.949594 
L 62.206288 13.766811 
L 61.912789 13.584027 
L 61.668606 13.401244 
L 61.47472 13.21846 
L 61.331914 13.035677 
L 61.240762 12.852893 
L 61.201631 12.670109 
L 61.214679 12.487326 
L 61.279854 12.304542 
L 61.396892 12.121759 
L 61.565322 11.938975 
L 61.784467 11.756192 
L 62.053444 11.573408 
L 62.371169 11.390624 
L 62.736364 11.207841 
L 63.147558 11.025057 
L 63.603096 10.842274 
L 64.101142 10.65949 
L 64.639691 10.476707 
L 65.216576 10.293923 
L 65.829473 10.111139 
L 66.475913 9.928356 
L 67.153295 9.745572 
L 67.85889 9.562789 
L 68.589858 9.380005 
L 69.343255 9.197222 
L 70.116047 9.014438 
L 70.905122 8.831654 
L 71.707304 8.648871 
L 72.519362 8.466087 
L 73.338026 8.283304 
L 74.16 8.10052 
" style="fill: none; stroke: #1f77b4; stroke-width: 5; stroke-linecap: square"/>
  </g>
  <g id="text_1">
   <!-- mpl -->
   <g transform="translate(7.2 26.196094) scale(0.25 -0.25)">
    <defs>
     <path id="DejaVuSans-Bold-6d" d="M 3781 2919 
Q 3994 3244 4286 3414 
Q 4578 3584 4928 3584 
Q 5531 3584 5847 3212 
Q 6163 2841 6163 2131 
L 6163 0 
L 5038 0 
L 5038 1825 
Q 5041 1866 5042 1909 
Q 5044 1953 5044 2034 
Q 5044 2406 4934 2573 
Q 4825 2741 4581 2741 
Q 4263 2741 4089 2478 
Q 3916 2216 3909 1719 
L 3909 0 
L 2784 0 
L 2784 1825 
Q 2784 2406 2684 2573 
Q 2584 2741 2328 2741 
Q 2006 2741 1831 2477 
Q 1656 2213 1656 1722 
L 1656 0 
L 531 0 
L 531 3500 
L 1656 3500 
L 1656 2988 
Q 1863 3284 2130 3434 
Q 2397 3584 2719 3584 
Q 3081 3584 3359 3409 
Q 3638 3234 3781 2919 
z
" transform="scale(0.015625)"/>
     <path id="DejaVuSans-Bold-70" d="M 1656 506 
L 1656 -1331 
L 538 -1331 
L 538 3500 
L 1656 3500 
L 1656 2988 
Q 1888 3294 2169 3439 
Q 2450 3584 2816 3584 
Q 3463 3584 3878 3070 
Q 4294 2556 4294 1747 
Q 4294 938 3878 423 
Q 3463 -91 2816 -91 
Q 2450 -91 2169 54 
Q 1888 200 1656 506 
z
M 2400 2772 
Q 2041 2772 1848 2508 
Q 1656 2244 1656 1747 
Q 1656 1250 1848 986 
Q 2041 722 2400 722 
Q 2759 722 2948 984 
Q 3138 1247 3138 1747 
Q 3138 2247 2948 2509 
Q 2759 2772 2400 2772 
z
" transform="scale(0.015625)"/>
     <path id="DejaVuSans-Bold-6c" d="M 538 4863 
L 1656 4863 
L 1656 0 
L 538 0 
L 538 4863 
z
" transform="scale(0.015625)"/>
    </defs>
    <use xlink:href="#DejaVuSans-Bold-6d"/>
    <use xlink:href="#DejaVuSans-Bold-70" x="104.199219"/>
    <use xlink:href="#DejaVuSans-Bold-6c" x="175.78125"/>
   </g>
  </g>
  <g id="text_2">
   <!-- ignal -->
   <g transform="translate(89.28 26.196094) scale(0.25 -0.25)">
    <defs>
     <path id="DejaVuSans-Bold-69" d="M 538 3500 
L 1656 3500 
L 1656 0 
L 538 0 
L 538 3500 
z
M 538 4863 
L 1656 4863 
L 1656 3950 
L 538 3950 
L 538 4863 
z
" transform="scale(0.015625)"/>
     <path id="DejaVuSans-Bold-67" d="M 2919 594 
Q 2688 288 2409 144 
Q 2131 0 1766 0 
Q 1125 0 706 504 
Q 288 1009 288 1791 
Q 288 2575 706 3076 
Q 1125 3578 1766 3578 
Q 2131 3578 2409 3434 
Q 2688 3291 2919 2981 
L 2919 3500 
L 4044 3500 
L 4044 353 
Q 4044 -491 3511 -936 
Q 2978 -1381 1966 -1381 
Q 1638 -1381 1331 -1331 
Q 1025 -1281 716 -1178 
L 716 -306 
Q 1009 -475 1290 -558 
Q 1572 -641 1856 -641 
Q 2406 -641 2662 -400 
Q 2919 -159 2919 353 
L 2919 594 
z
M 2181 2772 
Q 1834 2772 1640 2515 
Q 1447 2259 1447 1791 
Q 1447 1309 1634 1061 
Q 1822 813 2181 813 
Q 2531 813 2725 1069 
Q 2919 1325 2919 1791 
Q 2919 2259 2725 2515 
Q 2531 2772 2181 2772 
z
" transform="scale(0.015625)"/>
     <path id="DejaVuSans-Bold-6e" d="M 4056 2131 
L 4056 0 
L 2931 0 
L 2931 347 
L 2931 1631 
Q 2931 2084 2911 2256 
Q 2891 2428 2841 2509 
Q 2775 2619 2662 2680 
Q 2550 2741 2406 2741 
Q 2056 2741 1856 2470 
Q 1656 2200 1656 1722 
L 1656 0 
L 538 0 
L 538 3500 
L 1656 3500 
L 1656 2988 
Q 1909 3294 2193 3439 
Q 2478 3584 2822 3584 
Q 3428 3584 3742 3212 
Q 4056 2841 4056 2131 
z
" transform="scale(0.015625)"/>
     <path id="DejaVuSans-Bold-61" d="M 2106 1575 
Q 1756 1575 1579 1456 
Q 1403 1338 1403 1106 
Q 1403 894 1545 773 
Q 1688 653 1941 653 
Q 2256 653 2472 879 
Q 2688 1106 2688 1447 
L 2688 1575 
L 2106 1575 
z
M 3816 1997 
L 3816 0 
L 2688 0 
L 2688 519 
Q 2463 200 2181 54 
Q 1900 -91 1497 -91 
Q 953 -91 614 226 
Q 275 544 275 1050 
Q 275 1666 698 1953 
Q 1122 2241 2028 2241 
L 2688 2241 
L 2688 2328 
Q 2688 2594 2478 2717 
Q 2269 2841 1825 2841 
Q 1466 2841 1156 2769 
Q 847 2697 581 2553 
L 581 3406 
Q 941 3494 1303 3539 
Q 1666 3584 2028 3584 
Q 2975 3584 3395 3211 
Q 3816 2838 3816 1997 
z
" transform="scale(0.015625)"/>
    </defs>
    <use xlink:href="#DejaVuSans-Bold-69"/>
    <use xlink:href="#DejaVuSans-Bold-67" x="34.277344"/>
    <use xlink:href="#DejaVuSans-Bold-6e" x="105.859375"/>
    <use xlink:href="#DejaVuSans-Bold-61" x="177.050781"/>
    <use xlink:href="#DejaVuSans-Bold-6c" x="244.53125"/>
   </g>
  </g>
 </g>
</svg>
